# Blender v2.78 (sub 0) OBJ File: ''
# www.blender.org
mtllib atantile.mtl
o Z_Function
v -4.285714 0.143482 1.000000
v -5.000000 0.087361 0.857143
v -5.000000 0.087361 1.000000
v -4.285714 0.143482 0.857143
v -5.000000 0.087361 0.714286
v -4.285714 0.143482 0.714286
v -5.000000 0.087361 0.571429
v -4.285714 0.143482 0.571429
v -5.000000 0.087361 0.428571
v -4.285714 0.143482 0.428571
v -5.000000 0.087361 0.285714
v -4.285714 0.143482 0.285714
v -5.000000 0.087361 0.142857
v -4.285714 0.143482 0.142857
v -5.000000 0.087361 0.000000
v -4.285714 0.143482 0.000000
v -5.000000 0.087361 -0.142857
v -4.285714 0.143482 -0.142857
v -5.000000 0.087361 -0.285714
v -4.285714 0.143482 -0.285714
v -5.000000 0.087361 -0.428571
v -4.285714 0.143482 -0.428571
v -5.000000 0.087361 -0.571429
v -4.285714 0.143482 -0.571429
v -5.000000 0.087361 -0.714286
v -4.285714 0.143482 -0.714286
v -5.000000 0.087361 -0.857143
v -4.285714 0.143482 -0.857143
v -5.000000 0.087361 -1.000000
v -3.571429 0.217343 1.000000
v -3.571429 0.217343 0.857143
v -3.571429 0.217343 0.714286
v -3.571429 0.217343 0.571429
v -3.571429 0.217343 0.428571
v -3.571429 0.217343 0.285714
v -3.571429 0.217343 0.142857
v -3.571429 0.217343 0.000000
v -3.571429 0.217343 -0.142857
v -3.571429 0.217343 -0.285714
v -3.571429 0.217343 -0.428571
v -3.571429 0.217343 -0.571429
v -3.571429 0.217343 -0.714286
v -3.571429 0.217343 -0.857143
v -4.285714 0.143482 -1.000000
v -2.857143 0.317581 1.000000
v -2.857143 0.317581 0.857143
v -2.857143 0.317581 0.714286
v -2.857143 0.317581 0.571429
v -2.857143 0.317581 0.428571
v -2.857143 0.317581 0.285714
v -2.857143 0.317581 0.142857
v -2.857143 0.317581 0.000000
v -2.857143 0.317581 -0.142857
v -2.857143 0.317581 -0.285714
v -2.857143 0.317581 -0.428571
v -2.857143 0.317581 -0.571429
v -2.857143 0.317581 -0.714286
v -2.857143 0.317581 -0.857143
v -3.571429 0.217343 -1.000000
v -2.142857 0.457784 1.000000
v -2.142857 0.457784 0.857143
v -2.142857 0.457784 0.714286
v -2.142857 0.457784 0.571429
v -2.142857 0.457784 0.428571
v -2.142857 0.457784 0.285714
v -2.142857 0.457784 0.142857
v -2.142857 0.457784 0.000000
v -2.142857 0.457784 -0.142857
v -2.142857 0.457784 -0.285714
v -2.142857 0.457784 -0.428571
v -2.142857 0.457784 -0.571429
v -2.142857 0.457784 -0.714286
v -2.142857 0.457784 -0.857143
v -2.857143 0.317581 -1.000000
v -1.428571 0.657402 1.000000
v -1.428571 0.657402 0.857143
v -1.428571 0.657402 0.714286
v -1.428571 0.657402 0.571429
v -1.428571 0.657402 0.428571
v -1.428571 0.657402 0.285714
v -1.428571 0.657402 0.142857
v -1.428571 0.657402 0.000000
v -1.428571 0.657402 -0.142857
v -1.428571 0.657402 -0.285714
v -1.428571 0.657402 -0.428571
v -1.428571 0.657402 -0.571429
v -1.428571 0.657402 -0.714286
v -1.428571 0.657402 -0.857143
v -2.142857 0.457784 -1.000000
v -0.714286 0.934628 1.000000
v -0.714286 0.934628 0.857143
v -0.714286 0.934628 0.714286
v -0.714286 0.934628 0.571429
v -0.714286 0.934628 0.428571
v -0.714286 0.934628 0.285714
v -0.714286 0.934628 0.142857
v -0.714286 0.934628 0.000000
v -0.714286 0.934628 -0.142857
v -0.714286 0.934628 -0.285714
v -0.714286 0.934628 -0.428571
v -0.714286 0.934628 -0.571429
v -0.714286 0.934628 -0.714286
v -0.714286 0.934628 -0.857143
v -1.428571 0.657402 -1.000000
v 0.000000 1.277651 1.000000
v 0.000000 1.277651 0.857143
v 0.000000 1.277651 0.714286
v 0.000000 1.277651 0.571429
v 0.000000 1.277651 0.428571
v 0.000000 1.277651 0.285714
v 0.000000 1.277651 0.142857
v 0.000000 1.277651 0.000000
v 0.000000 1.277651 -0.142857
v 0.000000 1.277651 -0.285714
v 0.000000 1.277651 -0.428571
v 0.000000 1.277651 -0.571429
v 0.000000 1.277651 -0.714286
v 0.000000 1.277651 -0.857143
v -0.714286 0.934628 -1.000000
v 0.714286 1.620675 1.000000
v 0.714286 1.620675 0.857143
v 0.714286 1.620675 0.714286
v 0.714286 1.620675 0.571429
v 0.714286 1.620675 0.428571
v 0.714286 1.620675 0.285714
v 0.714286 1.620675 0.142857
v 0.714286 1.620675 0.000000
v 0.714286 1.620675 -0.142857
v 0.714286 1.620675 -0.285714
v 0.714286 1.620675 -0.428571
v 0.714286 1.620675 -0.571429
v 0.714286 1.620675 -0.714286
v 0.714286 1.620675 -0.857143
v 0.000000 1.277651 -1.000000
v 1.428571 1.897901 1.000000
v 1.428571 1.897901 0.857143
v 1.428571 1.897901 0.714286
v 1.428571 1.897901 0.571429
v 1.428571 1.897901 0.428571
v 1.428571 1.897901 0.285714
v 1.428571 1.897901 0.142857
v 1.428571 1.897901 0.000000
v 1.428571 1.897901 -0.142857
v 1.428571 1.897901 -0.285714
v 1.428571 1.897901 -0.428571
v 1.428571 1.897901 -0.571429
v 1.428571 1.897901 -0.714286
v 1.428571 1.897901 -0.857143
v 0.714286 1.620675 -1.000000
v 2.142857 2.097519 1.000000
v 2.142857 2.097519 0.857143
v 2.142857 2.097519 0.714286
v 2.142857 2.097519 0.571429
v 2.142857 2.097519 0.428571
v 2.142857 2.097519 0.285714
v 2.142857 2.097519 0.142857
v 2.142857 2.097519 0.000000
v 2.142857 2.097519 -0.142857
v 2.142857 2.097519 -0.285714
v 2.142857 2.097519 -0.428571
v 2.142857 2.097519 -0.571429
v 2.142857 2.097519 -0.714286
v 2.142857 2.097519 -0.857143
v 1.428571 1.897901 -1.000000
v 2.857143 2.237722 1.000000
v 2.857143 2.237722 0.857143
v 2.857143 2.237722 0.714286
v 2.857143 2.237722 0.571429
v 2.857143 2.237722 0.428571
v 2.857143 2.237722 0.285714
v 2.857143 2.237722 0.142857
v 2.857143 2.237722 0.000000
v 2.857143 2.237722 -0.142857
v 2.857143 2.237722 -0.285714
v 2.857143 2.237722 -0.428571
v 2.857143 2.237722 -0.571429
v 2.857143 2.237722 -0.714286
v 2.857143 2.237722 -0.857143
v 2.142857 2.097519 -1.000000
v 3.571429 2.337959 1.000000
v 3.571429 2.337959 0.857143
v 3.571429 2.337959 0.714286
v 3.571429 2.337959 0.571429
v 3.571429 2.337959 0.428571
v 3.571429 2.337959 0.285714
v 3.571429 2.337959 0.142857
v 3.571429 2.337959 0.000000
v 3.571429 2.337959 -0.142857
v 3.571429 2.337959 -0.285714
v 3.571429 2.337959 -0.428571
v 3.571429 2.337959 -0.571429
v 3.571429 2.337959 -0.714286
v 3.571429 2.337959 -0.857143
v 2.857143 2.237722 -1.000000
v 4.285714 2.411821 1.000000
v 4.285714 2.411821 0.857143
v 4.285714 2.411821 0.714286
v 4.285714 2.411821 0.571429
v 4.285714 2.411821 0.428571
v 4.285714 2.411821 0.285714
v 4.285714 2.411821 0.142857
v 4.285714 2.411821 0.000000
v 4.285714 2.411821 -0.142857
v 4.285714 2.411821 -0.285714
v 4.285714 2.411821 -0.428571
v 4.285714 2.411821 -0.571429
v 4.285714 2.411821 -0.714286
v 4.285714 2.411821 -0.857143
v 3.571429 2.337959 -1.000000
v 5.000000 2.467941 1.000000
v 5.000000 2.467941 0.857143
v 5.000000 2.467941 0.714286
v 5.000000 2.467941 0.571429
v 5.000000 2.467941 0.428571
v 5.000000 2.467941 0.285714
v 5.000000 2.467941 0.142857
v 5.000000 2.467941 0.000000
v 5.000000 2.467941 -0.142857
v 5.000000 2.467941 -0.285714
v 5.000000 2.467941 -0.428571
v 5.000000 2.467941 -0.571429
v 5.000000 2.467941 -0.714286
v 5.000000 2.467941 -0.857143
v 4.285714 2.411821 -1.000000
v 5.000000 2.467941 -1.000000
v -1.428571 0.000000 -1.000000
v 5.000000 -0.000000 1.000000
v 5.000000 -0.000000 0.857143
v 5.000000 -0.000000 0.285714
v 5.000000 -0.000000 0.142857
v 5.000000 0.000000 -0.285714
v 5.000000 0.000000 0.000000
v 5.000000 0.000000 -0.142857
v 4.285714 0.000000 -1.000000
v -1.428571 -0.000000 1.000000
v -0.714286 -0.000000 1.000000
v 4.285714 -0.000000 1.000000
v 5.000000 0.000000 -1.000000
v -2.142857 -0.000000 1.000000
v 0.000000 0.000000 -1.000000
v -0.714286 0.000000 -1.000000
v -2.142857 0.000000 -1.000000
v -2.857143 0.000000 -1.000000
v -5.000000 -0.000000 0.857143
v -5.000000 -0.000000 1.000000
v 3.571429 -0.000000 1.000000
v -3.571429 0.000000 -1.000000
v -5.000000 -0.000000 0.285714
v -5.000000 -0.000000 0.428571
v 5.000000 -0.000000 0.714286
v 5.000000 -0.000000 0.571429
v 5.000000 -0.000000 0.428571
v -5.000000 0.000000 -0.285714
v -5.000000 -0.000000 0.571429
v -5.000000 -0.000000 0.714286
v 5.000000 0.000000 -0.857143
v -5.000000 0.000000 -0.142857
v -5.000000 0.000000 0.000000
v -5.000000 -0.000000 0.142857
v 0.000000 -0.000000 1.000000
v 0.714286 -0.000000 1.000000
v 1.428571 -0.000000 1.000000
v -4.285714 0.000000 -1.000000
v -5.000000 0.000000 -1.000000
v -5.000000 0.000000 -0.857143
v -5.000000 0.000000 -0.714286
v -4.285714 -0.000000 1.000000
v 3.571429 0.000000 -1.000000
v 2.857143 0.000000 -1.000000
v 2.142857 0.000000 -1.000000
v 1.428571 0.000000 -1.000000
v 0.714286 0.000000 -1.000000
v 5.000000 0.000000 -0.428571
v 5.000000 0.000000 -0.571429
v 5.000000 0.000000 -0.714286
v -5.000000 0.000000 -0.571429
v -5.000000 0.000000 -0.428571
v -3.571429 -0.000000 1.000000
v -2.857143 -0.000000 1.000000
v 2.142857 -0.000000 1.000000
v 2.857143 -0.000000 1.000000
vn -0.0783 0.9969 0.0000
vn -0.1029 0.9947 0.0000
vn -0.1390 0.9903 0.0000
vn -0.1926 0.9813 0.0000
vn -0.2692 0.9631 0.0000
vn -0.3618 0.9322 0.0000
vn -0.4329 0.9014 0.0000
vn 0.0000 0.0000 -1.0000
vn 1.0000 0.0000 0.0000
vn 0.0000 -0.0000 1.0000
vn -1.0000 0.0000 0.0000
vn 0.0000 -1.0000 -0.0000
usemtl None
s 1
f 1//1 2//1 3//1
f 4//1 5//1 2//1
f 6//1 7//1 5//1
f 8//1 9//1 7//1
f 10//1 11//1 9//1
f 12//1 13//1 11//1
f 14//1 15//1 13//1
f 16//1 17//1 15//1
f 18//1 19//1 17//1
f 20//1 21//1 19//1
f 22//1 23//1 21//1
f 24//1 25//1 23//1
f 26//1 27//1 25//1
f 28//1 29//1 27//1
f 30//2 4//2 1//2
f 31//2 6//2 4//2
f 32//2 8//2 6//2
f 33//2 10//2 8//2
f 34//2 12//2 10//2
f 35//2 14//2 12//2
f 36//2 16//2 14//2
f 37//2 18//2 16//2
f 38//2 20//2 18//2
f 39//2 22//2 20//2
f 40//2 24//2 22//2
f 41//2 26//2 24//2
f 42//2 28//2 26//2
f 43//2 44//2 28//2
f 45//3 31//3 30//3
f 46//3 32//3 31//3
f 47//3 33//3 32//3
f 48//3 34//3 33//3
f 49//3 35//3 34//3
f 50//3 36//3 35//3
f 51//3 37//3 36//3
f 52//3 38//3 37//3
f 53//3 39//3 38//3
f 54//3 40//3 39//3
f 55//3 41//3 40//3
f 56//3 42//3 41//3
f 57//3 43//3 42//3
f 58//3 59//3 43//3
f 60//4 46//4 45//4
f 61//4 47//4 46//4
f 62//4 48//4 47//4
f 63//4 49//4 48//4
f 64//4 50//4 49//4
f 65//4 51//4 50//4
f 66//4 52//4 51//4
f 67//4 53//4 52//4
f 68//4 54//4 53//4
f 69//4 55//4 54//4
f 70//4 56//4 55//4
f 71//4 57//4 56//4
f 72//4 58//4 57//4
f 73//4 74//4 58//4
f 75//5 61//5 60//5
f 76//5 62//5 61//5
f 77//5 63//5 62//5
f 78//5 64//5 63//5
f 79//5 65//5 64//5
f 80//5 66//5 65//5
f 81//5 67//5 66//5
f 82//5 68//5 67//5
f 83//5 69//5 68//5
f 84//5 70//5 69//5
f 85//5 71//5 70//5
f 86//5 72//5 71//5
f 87//5 73//5 72//5
f 88//5 89//5 73//5
f 90//6 76//6 75//6
f 91//6 77//6 76//6
f 92//6 78//6 77//6
f 93//6 79//6 78//6
f 94//6 80//6 79//6
f 95//6 81//6 80//6
f 96//6 82//6 81//6
f 97//6 83//6 82//6
f 98//6 84//6 83//6
f 99//6 85//6 84//6
f 100//6 86//6 85//6
f 101//6 87//6 86//6
f 102//6 88//6 87//6
f 103//6 104//6 88//6
f 105//7 91//7 90//7
f 106//7 92//7 91//7
f 107//7 93//7 92//7
f 108//7 94//7 93//7
f 109//7 95//7 94//7
f 110//7 96//7 95//7
f 111//7 97//7 96//7
f 112//7 98//7 97//7
f 113//7 99//7 98//7
f 114//7 100//7 99//7
f 115//7 101//7 100//7
f 116//7 102//7 101//7
f 117//7 103//7 102//7
f 118//7 119//7 103//7
f 120//7 106//7 105//7
f 121//7 107//7 106//7
f 122//7 108//7 107//7
f 123//7 109//7 108//7
f 124//7 110//7 109//7
f 125//7 111//7 110//7
f 126//7 112//7 111//7
f 127//7 113//7 112//7
f 128//7 114//7 113//7
f 129//7 115//7 114//7
f 130//7 116//7 115//7
f 131//7 117//7 116//7
f 132//7 118//7 117//7
f 133//7 134//7 118//7
f 135//6 121//6 120//6
f 136//6 122//6 121//6
f 137//6 123//6 122//6
f 138//6 124//6 123//6
f 139//6 125//6 124//6
f 140//6 126//6 125//6
f 141//6 127//6 126//6
f 142//6 128//6 127//6
f 143//6 129//6 128//6
f 144//6 130//6 129//6
f 145//6 131//6 130//6
f 146//6 132//6 131//6
f 147//6 133//6 132//6
f 148//6 149//6 133//6
f 150//5 136//5 135//5
f 151//5 137//5 136//5
f 152//5 138//5 137//5
f 153//5 139//5 138//5
f 154//5 140//5 139//5
f 155//5 141//5 140//5
f 156//5 142//5 141//5
f 157//5 143//5 142//5
f 158//5 144//5 143//5
f 159//5 145//5 144//5
f 160//5 146//5 145//5
f 161//5 147//5 146//5
f 162//5 148//5 147//5
f 163//5 164//5 148//5
f 165//4 151//4 150//4
f 166//4 152//4 151//4
f 167//4 153//4 152//4
f 168//4 154//4 153//4
f 169//4 155//4 154//4
f 170//4 156//4 155//4
f 171//4 157//4 156//4
f 172//4 158//4 157//4
f 173//4 159//4 158//4
f 174//4 160//4 159//4
f 175//4 161//4 160//4
f 176//4 162//4 161//4
f 177//4 163//4 162//4
f 178//4 179//4 163//4
f 180//3 166//3 165//3
f 181//3 167//3 166//3
f 182//3 168//3 167//3
f 183//3 169//3 168//3
f 184//3 170//3 169//3
f 185//3 171//3 170//3
f 186//3 172//3 171//3
f 187//3 173//3 172//3
f 188//3 174//3 173//3
f 189//3 175//3 174//3
f 190//3 176//3 175//3
f 191//3 177//3 176//3
f 192//3 178//3 177//3
f 193//3 194//3 178//3
f 195//2 181//2 180//2
f 196//2 182//2 181//2
f 197//2 183//2 182//2
f 198//2 184//2 183//2
f 199//2 185//2 184//2
f 200//2 186//2 185//2
f 201//2 187//2 186//2
f 202//2 188//2 187//2
f 203//2 189//2 188//2
f 204//2 190//2 189//2
f 205//2 191//2 190//2
f 206//2 192//2 191//2
f 207//2 193//2 192//2
f 208//2 209//2 193//2
f 210//1 196//1 195//1
f 211//1 197//1 196//1
f 212//1 198//1 197//1
f 213//1 199//1 198//1
f 214//1 200//1 199//1
f 215//1 201//1 200//1
f 216//1 202//1 201//1
f 217//1 203//1 202//1
f 218//1 204//1 203//1
f 219//1 205//1 204//1
f 220//1 206//1 205//1
f 221//1 207//1 206//1
f 222//1 208//1 207//1
f 223//1 224//1 208//1
f 1//1 4//1 2//1
f 4//1 6//1 5//1
f 6//1 8//1 7//1
f 8//1 10//1 9//1
f 10//1 12//1 11//1
f 12//1 14//1 13//1
f 14//1 16//1 15//1
f 16//1 18//1 17//1
f 18//1 20//1 19//1
f 20//1 22//1 21//1
f 22//1 24//1 23//1
f 24//1 26//1 25//1
f 26//1 28//1 27//1
f 28//1 44//1 29//1
f 30//2 31//2 4//2
f 31//2 32//2 6//2
f 32//2 33//2 8//2
f 33//2 34//2 10//2
f 34//2 35//2 12//2
f 35//2 36//2 14//2
f 36//2 37//2 16//2
f 37//2 38//2 18//2
f 38//2 39//2 20//2
f 39//2 40//2 22//2
f 40//2 41//2 24//2
f 41//2 42//2 26//2
f 42//2 43//2 28//2
f 43//2 59//2 44//2
f 45//3 46//3 31//3
f 46//3 47//3 32//3
f 47//3 48//3 33//3
f 48//3 49//3 34//3
f 49//3 50//3 35//3
f 50//3 51//3 36//3
f 51//3 52//3 37//3
f 52//3 53//3 38//3
f 53//3 54//3 39//3
f 54//3 55//3 40//3
f 55//3 56//3 41//3
f 56//3 57//3 42//3
f 57//3 58//3 43//3
f 58//3 74//3 59//3
f 60//4 61//4 46//4
f 61//4 62//4 47//4
f 62//4 63//4 48//4
f 63//4 64//4 49//4
f 64//4 65//4 50//4
f 65//4 66//4 51//4
f 66//4 67//4 52//4
f 67//4 68//4 53//4
f 68//4 69//4 54//4
f 69//4 70//4 55//4
f 70//4 71//4 56//4
f 71//4 72//4 57//4
f 72//4 73//4 58//4
f 73//4 89//4 74//4
f 75//5 76//5 61//5
f 76//5 77//5 62//5
f 77//5 78//5 63//5
f 78//5 79//5 64//5
f 79//5 80//5 65//5
f 80//5 81//5 66//5
f 81//5 82//5 67//5
f 82//5 83//5 68//5
f 83//5 84//5 69//5
f 84//5 85//5 70//5
f 85//5 86//5 71//5
f 86//5 87//5 72//5
f 87//5 88//5 73//5
f 88//5 104//5 89//5
f 90//6 91//6 76//6
f 91//6 92//6 77//6
f 92//6 93//6 78//6
f 93//6 94//6 79//6
f 94//6 95//6 80//6
f 95//6 96//6 81//6
f 96//6 97//6 82//6
f 97//6 98//6 83//6
f 98//6 99//6 84//6
f 99//6 100//6 85//6
f 100//6 101//6 86//6
f 101//6 102//6 87//6
f 102//6 103//6 88//6
f 103//6 119//6 104//6
f 105//7 106//7 91//7
f 106//7 107//7 92//7
f 107//7 108//7 93//7
f 108//7 109//7 94//7
f 109//7 110//7 95//7
f 110//7 111//7 96//7
f 111//7 112//7 97//7
f 112//7 113//7 98//7
f 113//7 114//7 99//7
f 114//7 115//7 100//7
f 115//7 116//7 101//7
f 116//7 117//7 102//7
f 117//7 118//7 103//7
f 118//7 134//7 119//7
f 120//7 121//7 106//7
f 121//7 122//7 107//7
f 122//7 123//7 108//7
f 123//7 124//7 109//7
f 124//7 125//7 110//7
f 125//7 126//7 111//7
f 126//7 127//7 112//7
f 127//7 128//7 113//7
f 128//7 129//7 114//7
f 129//7 130//7 115//7
f 130//7 131//7 116//7
f 131//7 132//7 117//7
f 132//7 133//7 118//7
f 133//7 149//7 134//7
f 135//6 136//6 121//6
f 136//6 137//6 122//6
f 137//6 138//6 123//6
f 138//6 139//6 124//6
f 139//6 140//6 125//6
f 140//6 141//6 126//6
f 141//6 142//6 127//6
f 142//6 143//6 128//6
f 143//6 144//6 129//6
f 144//6 145//6 130//6
f 145//6 146//6 131//6
f 146//6 147//6 132//6
f 147//6 148//6 133//6
f 148//6 164//6 149//6
f 150//5 151//5 136//5
f 151//5 152//5 137//5
f 152//5 153//5 138//5
f 153//5 154//5 139//5
f 154//5 155//5 140//5
f 155//5 156//5 141//5
f 156//5 157//5 142//5
f 157//5 158//5 143//5
f 158//5 159//5 144//5
f 159//5 160//5 145//5
f 160//5 161//5 146//5
f 161//5 162//5 147//5
f 162//5 163//5 148//5
f 163//5 179//5 164//5
f 165//4 166//4 151//4
f 166//4 167//4 152//4
f 167//4 168//4 153//4
f 168//4 169//4 154//4
f 169//4 170//4 155//4
f 170//4 171//4 156//4
f 171//4 172//4 157//4
f 172//4 173//4 158//4
f 173//4 174//4 159//4
f 174//4 175//4 160//4
f 175//4 176//4 161//4
f 176//4 177//4 162//4
f 177//4 178//4 163//4
f 178//4 194//4 179//4
f 180//3 181//3 166//3
f 181//3 182//3 167//3
f 182//3 183//3 168//3
f 183//3 184//3 169//3
f 184//3 185//3 170//3
f 185//3 186//3 171//3
f 186//3 187//3 172//3
f 187//3 188//3 173//3
f 188//3 189//3 174//3
f 189//3 190//3 175//3
f 190//3 191//3 176//3
f 191//3 192//3 177//3
f 192//3 193//3 178//3
f 193//3 209//3 194//3
f 195//2 196//2 181//2
f 196//2 197//2 182//2
f 197//2 198//2 183//2
f 198//2 199//2 184//2
f 199//2 200//2 185//2
f 200//2 201//2 186//2
f 201//2 202//2 187//2
f 202//2 203//2 188//2
f 203//2 204//2 189//2
f 204//2 205//2 190//2
f 205//2 206//2 191//2
f 206//2 207//2 192//2
f 207//2 208//2 193//2
f 208//2 224//2 209//2
f 210//1 211//1 196//1
f 211//1 212//1 197//1
f 212//1 213//1 198//1
f 213//1 214//1 199//1
f 214//1 215//1 200//1
f 215//1 216//1 201//1
f 216//1 217//1 202//1
f 217//1 218//1 203//1
f 218//1 219//1 204//1
f 219//1 220//1 205//1
f 220//1 221//1 206//1
f 221//1 222//1 207//1
f 222//1 223//1 208//1
f 223//1 225//1 224//1
f 89//8 104//8 226//8
f 210//9 227//9 228//9
f 212//9 211//9 228//9
f 215//9 229//9 230//9
f 220//9 219//9 231//9
f 217//9 216//9 230//9
f 218//9 217//9 232//9
f 218//9 233//9 231//9
f 209//8 224//8 234//8
f 75//10 235//10 236//10
f 195//10 237//10 227//10
f 224//8 225//8 238//8
f 60//10 239//10 235//10
f 119//8 134//8 240//8
f 104//8 119//8 241//8
f 74//8 89//8 242//8
f 59//8 74//8 243//8
f 2//11 244//11 245//11
f 180//10 246//10 237//10
f 44//8 59//8 247//8
f 11//11 248//11 249//11
f 213//9 212//9 250//9
f 214//9 213//9 251//9
f 215//9 214//9 252//9
f 17//11 19//11 253//11
f 7//11 9//11 249//11
f 5//11 7//11 254//11
f 2//11 5//11 255//11
f 225//9 223//9 256//9
f 17//11 257//11 258//11
f 13//11 15//11 258//11
f 11//11 13//11 259//11
f 90//10 236//10 260//10
f 105//10 260//10 261//10
f 120//10 261//10 262//10
f 29//8 44//8 263//8
f 27//11 29//11 264//11
f 27//11 265//11 266//11
f 3//10 245//10 267//10
f 194//8 209//8 268//8
f 179//8 194//8 269//8
f 164//8 179//8 270//8
f 149//8 164//8 271//8
f 134//8 149//8 272//8
f 221//9 220//9 273//9
f 222//9 221//9 274//9
f 223//9 222//9 275//9
f 23//11 25//11 266//11
f 21//11 23//11 276//11
f 19//11 21//11 277//11
f 1//10 267//10 278//10
f 30//10 278//10 279//10
f 45//10 279//10 239//10
f 135//10 262//10 280//10
f 150//10 280//10 281//10
f 165//10 281//10 246//10
f 89//8 226//8 242//8
f 210//9 228//9 211//9
f 212//9 228//9 250//9
f 215//9 230//9 216//9
f 220//9 231//9 273//9
f 217//9 230//9 232//9
f 218//9 232//9 233//9
f 218//9 231//9 219//9
f 209//8 234//8 268//8
f 75//10 236//10 90//10
f 195//10 227//10 210//10
f 224//8 238//8 234//8
f 60//10 235//10 75//10
f 119//8 240//8 241//8
f 104//8 241//8 226//8
f 74//8 242//8 243//8
f 59//8 243//8 247//8
f 2//11 245//11 3//11
f 180//10 237//10 195//10
f 44//8 247//8 263//8
f 11//11 249//11 9//11
f 213//9 250//9 251//9
f 214//9 251//9 252//9
f 215//9 252//9 229//9
f 17//11 253//11 257//11
f 7//11 249//11 254//11
f 5//11 254//11 255//11
f 2//11 255//11 244//11
f 225//9 256//9 238//9
f 17//11 258//11 15//11
f 13//11 258//11 259//11
f 11//11 259//11 248//11
f 90//10 260//10 105//10
f 105//10 261//10 120//10
f 120//10 262//10 135//10
f 29//8 263//8 264//8
f 27//11 264//11 265//11
f 27//11 266//11 25//11
f 3//10 267//10 1//10
f 194//8 268//8 269//8
f 179//8 269//8 270//8
f 164//8 270//8 271//8
f 149//8 271//8 272//8
f 134//8 272//8 240//8
f 221//9 273//9 274//9
f 222//9 274//9 275//9
f 223//9 275//9 256//9
f 23//11 266//11 276//11
f 21//11 276//11 277//11
f 19//11 277//11 253//11
f 1//10 278//10 30//10
f 30//10 279//10 45//10
f 45//10 239//10 60//10
f 135//10 280//10 150//10
f 150//10 281//10 165//10
f 165//10 246//10 180//10
f 262//12 270//12 280//12
f 226//12 241//12 236//12
f 247//12 267//12 263//12
f 241//12 260//12 236//12
f 263//12 265//12 264//12
f 240//12 260//12 241//12
f 243//12 278//12 247//12
f 265//12 263//12 266//12
f 235//12 226//12 236//12
f 270//12 262//12 271//12
f 272//12 260//12 240//12
f 263//12 276//12 266//12
f 268//12 281//12 269//12
f 271//12 261//12 272//12
f 235//12 242//12 226//12
f 238//12 256//12 234//12
f 269//12 280//12 270//12
f 253//12 263//12 257//12
f 276//12 263//12 277//12
f 256//12 275//12 234//12
f 274//12 234//12 275//12
f 234//12 274//12 273//12
f 257//12 263//12 258//12
f 277//12 263//12 253//12
f 234//12 273//12 231//12
f 267//12 247//12 278//12
f 234//12 231//12 233//12
f 267//12 258//12 263//12
f 232//12 234//12 233//12
f 234//12 232//12 237//12
f 254//12 267//12 255//12
f 267//12 259//12 258//12
f 230//12 237//12 232//12
f 234//12 237//12 268//12
f 255//12 267//12 244//12
f 267//12 254//12 249//12
f 244//12 267//12 245//12
f 229//12 237//12 230//12
f 252//12 237//12 229//12
f 267//12 249//12 248//12
f 239//12 242//12 235//12
f 278//12 243//12 279//12
f 251//12 237//12 252//12
f 227//12 237//12 228//12
f 250//12 237//12 251//12
f 279//12 243//12 239//12
f 260//12 272//12 261//12
f 239//12 243//12 242//12
f 228//12 237//12 250//12
f 281//12 268//12 246//12
f 237//12 246//12 268//12
f 259//12 267//12 248//12
f 280//12 269//12 281//12
f 261//12 271//12 262//12
