# Blender v2.78 (sub 0) OBJ File: ''
# www.blender.org
mtllib flattile.mtl
o Plane
v -1.000000 0.000000 1.000000
v 1.000000 0.000000 1.000000
v -1.000000 0.000000 -1.000000
v 1.000000 0.000000 -1.000000
v 1.000000 0.000000 1.000000
v -1.000000 0.000000 -1.000000
v -1.000000 0.033788 -1.000000
v -1.000000 0.033788 1.000000
v 1.000000 0.033788 1.000000
v 1.000000 0.033788 -1.000000
vn 0.0000 0.0000 -1.0000
vn -1.0000 0.0000 0.0000
vn 0.0000 0.0000 1.0000
vn 0.0000 1.0000 0.0000
vn 1.0000 0.0000 0.0000
usemtl None
s off
f 3//1 10//1 4//1
f 1//2 7//2 3//2
f 3//3 5//3 2//3
f 9//4 7//4 8//4
f 9//4 10//4 7//4
f 2//3 8//3 1//3
f 4//5 9//5 2//5
f 3//1 7//1 10//1
f 1//2 8//2 7//2
f 3//3 6//3 5//3
f 2//3 9//3 8//3
f 4//5 10//5 9//5
