# Blender v2.78 (sub 0) OBJ File: ''
# www.blender.org
mtllib plate.mtl
o pPlane3_Untitled.005
v -0.093291 0.089236 0.014455
v -0.093637 0.089176 -0.004403
v -0.095118 0.085540 -0.003593
v -0.094679 0.085552 0.013495
v -0.089621 0.098977 0.013834
v -0.089720 0.098791 -0.003340
v -0.091689 0.093957 -0.004302
v -0.091466 0.094080 0.014590
v -0.094721 0.089796 0.014474
v -0.095067 0.089736 -0.004384
v -0.096548 0.086100 -0.003574
v -0.096109 0.086112 0.013514
v -0.091051 0.099537 0.013853
v -0.091150 0.099351 -0.003321
v -0.093119 0.094517 -0.004283
v -0.092896 0.094640 0.014609
vt 0.0000 0.7256
vt 0.0000 1.0000
vt 0.9355 1.0000
vt 0.9355 0.7256
vt 0.0000 0.0000
vt 0.0000 0.3647
vt 0.9355 0.3647
vt 0.9355 0.0000
vt 0.0000 0.7256
vt 0.9355 0.7256
vt 0.9355 1.0000
vt 0.0000 1.0000
vt 0.0000 0.0000
vt 0.9355 0.0000
vt 0.9355 0.3647
vt 0.0000 0.3647
vn 0.9310 -0.3646 -0.0156
vn 0.9310 -0.3645 -0.0196
vn 0.9310 -0.3646 -0.0157
vn 0.9311 -0.3648 -0.0052
vn 0.9311 -0.3647 -0.0088
vn 0.9311 -0.3647 -0.0090
vn -0.9310 0.3646 0.0156
vn -0.9310 0.3646 0.0157
vn -0.9310 0.3645 0.0196
vn -0.9311 0.3648 0.0052
vn -0.9311 0.3647 0.0090
vn -0.9311 0.3647 0.0088
vn -0.0445 -0.0799 -0.9958
vn -0.2908 -0.7213 -0.6287
vn -0.2914 -0.7226 -0.6269
vn -0.0453 -0.0818 -0.9956
vn 0.2715 0.7149 -0.6444
vn 0.0256 0.0990 -0.9948
vn 0.0251 0.0979 -0.9949
vn -0.2788 -0.7327 0.6208
vn -0.2783 -0.7315 0.6225
vn -0.0371 -0.1284 0.9910
vn 0.0327 0.0497 0.9982
vn 0.0332 0.0509 0.9982
vn -0.0364 -0.1265 0.9913
vn 0.2846 0.7047 0.6499
vn 0.2847 0.7047 0.6498
usemtl lambert2
s 1
f 1/1/1 4/2/2 3/3/2 2/4/3
f 5/5/4 8/6/5 7/7/6 6/8/4
f 8/6/5 1/1/1 2/4/3 7/7/6
f 9/9/7 10/10/8 11/11/9 12/12/9
f 13/13/10 14/14/10 15/15/11 16/16/12
f 16/16/12 15/15/11 10/10/8 9/9/7
f 2/4/13 3/3/14 11/11/15 10/10/16
f 6/8/17 7/7/18 15/15/19 14/14/17
f 7/7/18 2/4/13 10/10/16 15/15/19
f 3/3/14 4/2/20 12/12/21 11/11/15
f 1/1/22 8/6/23 16/16/24 9/9/25
f 5/5/26 6/8/17 14/14/17 13/13/27
f 4/2/20 1/1/22 9/9/25 12/12/21
f 8/6/23 5/5/26 13/13/27 16/16/24
