# Blender v2.78 (sub 0) OBJ File: ''
# www.blender.org
mtllib plate.mtl
o pPlane3_Untitled.005
v -0.093291 0.089236 0.014455
v -0.094679 0.085552 0.013495
v -0.095118 0.085540 -0.003593
v -0.093637 0.089176 -0.004403
v -0.089621 0.098977 0.013834
v -0.091466 0.094080 0.014590
v -0.091689 0.093957 -0.004302
v -0.089720 0.098791 -0.003340
v -0.094721 0.089796 0.014474
v -0.095067 0.089736 -0.004384
v -0.096548 0.086100 -0.003574
v -0.096109 0.086112 0.013514
v -0.091051 0.099537 0.013853
v -0.091150 0.099351 -0.003321
v -0.093119 0.094517 -0.004283
v -0.092896 0.094640 0.014609
vt 0.0000 1.0000
vt 0.9355 0.7256
vt 0.0000 0.7256
vt 0.0000 0.3647
vt 0.9355 0.0000
vt 0.0000 0.0000
vt 0.9355 0.3647
vt 0.9355 0.7256
vt 0.0000 1.0000
vt 0.0000 0.7256
vt 0.9355 0.0000
vt 0.0000 0.3647
vt 0.0000 0.0000
vt 0.9355 0.3647
vt 0.9355 1.0000
vt 0.9355 1.0000
vn 0.9356 -0.3528 -0.0170
vn 0.9261 -0.3768 -0.0189
vn 0.9355 -0.3530 -0.0127
vn 0.9349 -0.3548 -0.0059
vn 0.9282 -0.3721 -0.0074
vn 0.9357 -0.3528 -0.0016
vn 0.9273 -0.3742 -0.0118
vn -0.9261 0.3768 0.0189
vn -0.9356 0.3528 0.0170
vn -0.9355 0.3530 0.0127
vn -0.9282 0.3721 0.0074
vn -0.9349 0.3548 0.0059
vn -0.9357 0.3528 0.0016
vn -0.9273 0.3742 0.0118
vn -0.2908 -0.7213 -0.6287
vn -0.0453 -0.0818 -0.9956
vn -0.0445 -0.0799 -0.9958
vn 0.0256 0.0990 -0.9948
vn 0.2714 0.7149 -0.6444
vn 0.0251 0.0979 -0.9949
vn -0.2782 -0.7315 0.6224
vn -0.2913 -0.7226 -0.6268
vn 0.0327 0.0497 0.9982
vn -0.0364 -0.1266 0.9913
vn -0.0371 -0.1284 0.9910
vn 0.2846 0.7047 0.6499
vn 0.2846 0.7048 0.6499
vn -0.2787 -0.7327 0.6208
vn 0.0332 0.0509 0.9982
vn 0.9240 -0.3816 -0.0235
vn -0.9240 0.3816 0.0235
usemtl lambert2
s 1
f 2/1/1 4/2/2 1/3/3
f 6/4/4 8/5/5 5/6/6
f 1/3/3 7/7/7 6/4/4
f 10/8/8 12/9/9 9/10/10
f 14/11/11 16/12/12 13/13/13
f 15/14/14 9/10/10 16/12/12
f 3/15/15 10/8/16 4/2/17
f 7/7/18 14/11/19 8/5/19
f 4/2/17 15/14/20 7/7/18
f 3/15/15 12/9/21 11/16/22
f 6/4/23 9/10/24 1/3/25
f 5/6/26 14/11/19 13/13/27
f 1/3/25 12/9/21 2/1/28
f 5/6/26 16/12/29 6/4/23
f 2/1/1 3/15/30 4/2/2
f 6/4/4 7/7/7 8/5/5
f 1/3/3 4/2/2 7/7/7
f 10/8/8 11/16/31 12/9/9
f 14/11/11 15/14/14 16/12/12
f 15/14/14 10/8/8 9/10/10
f 3/15/15 11/16/22 10/8/16
f 7/7/18 15/14/20 14/11/19
f 4/2/17 10/8/16 15/14/20
f 3/15/15 2/1/28 12/9/21
f 6/4/23 16/12/29 9/10/24
f 5/6/26 8/5/19 14/11/19
f 1/3/25 9/10/24 12/9/21
f 5/6/26 13/13/27 16/12/29
