# Blender v2.78 (sub 0) OBJ File: ''
# www.blender.org
mtllib left_eye.mtl
o Cube_Cube.001
v 0.036634 0.122110 0.172332
v 0.036634 0.102110 0.172332
v 0.036634 0.102110 0.170332
v 0.011261 0.102087 0.170455
v 0.011034 0.102110 0.170332
v 0.036634 0.122110 0.171321
v 0.036634 0.121824 0.170332
v 0.011261 0.102282 0.168455
v 0.011261 0.102860 0.170455
v 0.036250 0.122110 0.172332
vn -0.5839 0.7798 -0.2257
vn 0.0738 -0.0000 -0.9973
vn -1.0000 0.0000 0.0000
vn 0.0000 0.0000 1.0000
vn 0.0000 1.0000 0.0000
vn -0.0000 -0.9823 -0.1872
vn 1.0000 -0.0000 0.0000
vn -0.5845 0.7805 -0.2219
vn -0.0000 -0.9958 -0.0910
vn 0.0501 0.9940 0.0969
vn -0.0738 -0.0014 0.9973
vn -0.0738 0.0000 0.9973
vn 0.0009 -1.0000 0.0000
usemtl None
s off
f 6//1 8//1 9//1
f 3//2 8//2 7//2
f 8//3 4//3 9//3
f 2//4 1//4 10//4
f 6//5 10//5 1//5
f 3//6 4//6 5//6
f 3//7 7//7 6//7
f 9//8 10//8 6//8
f 6//1 7//1 8//1
f 3//9 5//9 8//9
f 8//10 5//10 4//10
f 10//11 9//11 2//11
f 4//12 2//12 9//12
f 3//13 2//13 4//13
f 6//7 1//7 2//7
f 2//7 3//7 6//7
