# Blender v2.78 (sub 0) OBJ File: ''
# www.blender.org
mtllib flat.mtl
o Plane
v -4.000000 -0.000001 4.000000
v 4.000000 -0.000001 4.000000
v 4.000000 0.000001 -4.000000
v -4.000000 0.000001 -4.000000
v -4.000000 0.200524 4.000000
v 4.000000 0.200524 4.000000
v 4.000000 0.200526 -4.000000
v -4.000000 0.200526 -4.000000
vn -0.5774 -0.5774 0.5774
vn -0.5774 -0.5774 -0.5774
vn 0.5774 -0.5774 -0.5774
vn 0.5774 -0.5774 0.5774
vn -0.5774 0.5774 0.5774
vn 0.5774 0.5774 0.5774
vn 0.5774 0.5774 -0.5774
vn -0.5774 0.5774 -0.5774
usemtl None
s 1
f 1//1 4//2 3//3 2//4
f 5//5 6//6 7//7 8//8
f 2//4 3//3 7//7 6//6
f 4//2 1//1 5//5 8//8
f 3//3 4//2 8//8 7//7
f 1//1 2//4 6//6 5//5
